<svg width="24" height="24" version="1.1" viewBox="0 0 24 24" xmlns="http://www.w3.org/2000/svg"><g><path d="m12.08 2s6.538 0.01493 6.587 7.27c0.03116 4.633-6.578 12.73-6.578 12.73s-6.605-7.517-6.589-12.72c0.02239-7.273 6.58-7.276 6.58-7.276zm9.84e-4 2.273a4.091 4.232 89.98 0 0-4.23 4.093 4.091 4.232 89.98 0 0 4.234 4.089 4.091 4.232 89.98 0 0 4.23-4.093 4.091 4.232 89.98 0 0-4.234-4.089z" fill="#f1ece6"/><path d="m12.03 3.61s5.278 0.01206 5.317 5.869c0.02516 3.74-5.31 10.28-5.31 10.28s-5.332-6.069-5.319-10.27c0.01807-5.872 5.312-5.874 5.312-5.874zm7.94e-4 1.835a3.303 3.417 89.98 0 0-3.415 3.304 3.303 3.417 89.98 0 0 3.418 3.301 3.303 3.417 89.98 0 0 3.415-3.304 3.303 3.417 89.98 0 0-3.418-3.301z" fill="#235a0c"/><ellipse transform="matrix(-1 .000433 .000433 1 0 0)" cx="-12.03" cy="8.753" rx="3.417" ry="3.303" fill="#fff" stroke-linecap="round" stroke-linejoin="round" stroke-width="1.434"/></g></svg>
