<?xml version="1.0" encoding="UTF-8"?>
<svg width="100" height="150" version="1.1" viewBox="0 0 30000 45000" xmlns="http://www.w3.org/2000/svg"><g transform="translate(0 -257)"><path d="m1.2e3 863 2.77e4 93.9-1.58e4 7.93e3z" fill="#787878"/><path d="m0 2.68e4 1.29e4 1.86e4-3.78e3-1.71e4z" fill="#505050"/><path d="m1.09e4 2.83e4 1.92e4-1.39e3-1.55e4 1.85e4z" fill="#646464"/><path d="m0 2.5e4 9.11e3 1.48e3 2.98e3-1.66e4-1.15e4-7.82e3z" fill="#5a5a5a"/><path d="m1.09e4 2.65e4 2.98e3-1.66e4 1.56e4-7.72e3 694 2.29e4z" fill="#5d7f62"/></g></svg>
