<?xml version="1.0" standalone="no"?>
<!DOCTYPE svg PUBLIC "-//W3C//DTD SVG 20010904//EN"
 "http://www.w3.org/TR/2001/REC-SVG-20010904/DTD/svg10.dtd">
<svg version="1.0" xmlns="http://www.w3.org/2000/svg"
 width="700.000000pt" height="700.000000pt" viewBox="0 0 700.000000 700.000000"
 preserveAspectRatio="xMidYMid meet">
<metadata>
Created by potrace 1.11, written by Peter Selinger 2001-2013
</metadata>
<g transform="translate(0.000000,700.000000) scale(0.100000,-0.100000)"
fill="#000000" stroke="none">
<path d="M2665 6951 c-427 -173 -740 -415 -1031 -798 -118 -155 -295 -513
-329 -664 -2 -9 -12 -47 -24 -85 -11 -38 -27 -107 -35 -154 -9 -47 -18 -98
-21 -115 -38 -214 -17 -699 45 -1026 6 -30 13 -67 15 -84 6 -35 42 -193 55
-245 125 -464 239 -785 435 -1220 82 -184 337 -687 375 -740 11 -15 20 -31 20
-34 0 -4 37 -71 81 -149 263 -460 595 -959 952 -1434 l152 -202 142 -1 143 0
41 53 c70 89 151 195 214 281 11 15 27 36 35 47 8 10 25 33 38 51 13 18 51 71
85 118 211 292 578 872 764 1208 14 26 45 81 68 122 23 41 62 116 87 165 26
50 63 122 83 160 112 216 286 609 374 850 29 77 56 149 61 160 44 99 187 611
216 770 3 22 8 49 11 60 25 127 27 136 37 210 3 22 8 60 12 85 3 25 7 61 9 80
1 19 6 72 10 116 12 141 12 405 -2 524 -11 97 -27 183 -68 367 -3 12 -21 68
-41 125 -123 354 -307 645 -574 906 -212 208 -452 364 -755 491 l-110 46 -725
3 -725 2 -120 -49z m1072 -961 c366 -73 679 -317 847 -659 49 -99 91 -237 102
-330 2 -24 7 -47 9 -52 7 -10 7 -211 1 -259 -14 -102 -19 -130 -36 -190 -124
-454 -480 -778 -960 -875 -69 -14 -294 -14 -382 0 -145 22 -207 43 -358 117
-212 104 -381 265 -504 478 -64 111 -130 292 -141 390 -3 25 -8 59 -11 77 -6
40 -6 219 0 253 3 14 7 43 9 65 12 99 65 257 128 373 174 324 478 546 849 619
120 23 310 20 447 -7z"/>
</g>
</svg>
